<svg width="1200" height="670" viewBox="0 0 1200 670" fill="none" xmlns="http://www.w3.org/2000/svg">
<path d="M-373 49.3448C-373 49.3448 -105.056 -7.54691 68 0.844791C525.081 23.0092 652.616 505.262 1109 538.845C1388.97 559.446 1817.5 417.345 1817.5 417.345" stroke="url(#paint0_linear_18_377)" stroke-width="1.5"/>
<path d="M-373 81.3448C-373 81.3448 -105.056 24.4531 68 32.8448C525.081 55.0092 652.616 537.262 1109 570.845C1388.97 591.446 1817.5 449.345 1817.5 449.345" stroke="url(#paint1_linear_18_377)" stroke-width="1.5"/>
<path d="M-373 113.345C-373 113.345 -105.056 56.4531 68 64.8448C525.081 87.0092 652.616 569.262 1109 602.845C1388.97 623.446 1817.5 481.345 1817.5 481.345" stroke="url(#paint2_linear_18_377)" stroke-width="1.5"/>
<path d="M-373 145.345C-373 145.345 -105.056 88.4531 68 96.8448C525.081 119.009 652.616 601.262 1109 634.845C1388.97 655.446 1817.5 513.345 1817.5 513.345" stroke="url(#paint3_linear_18_377)" stroke-width="1.5"/>
<path d="M-373 177.345C-373 177.345 -105.056 120.453 68 128.845C525.081 151.009 652.616 633.262 1109 666.845C1388.97 687.446 1817.5 545.345 1817.5 545.345" stroke="url(#paint4_linear_18_377)" stroke-width="1.5"/>
<defs>
<linearGradient id="paint0_linear_18_377" x1="722.25" y1="0" x2="722.25" y2="540.886" gradientUnits="userSpaceOnUse">
<stop stop-color="#FFC700"/>
<stop offset="0.515625" stop-color="#FF7A00"/>
<stop offset="0.989583" stop-color="#5200FF"/>
</linearGradient>
<linearGradient id="paint1_linear_18_377" x1="722.25" y1="32" x2="722.25" y2="572.886" gradientUnits="userSpaceOnUse">
<stop stop-color="#FFC700"/>
<stop offset="0.515625" stop-color="#FF7A00"/>
<stop offset="0.989583" stop-color="#5200FF"/>
</linearGradient>
<linearGradient id="paint2_linear_18_377" x1="722.25" y1="64" x2="722.25" y2="604.886" gradientUnits="userSpaceOnUse">
<stop stop-color="#FFC700"/>
<stop offset="0.515625" stop-color="#FF7A00"/>
<stop offset="0.989583" stop-color="#5200FF"/>
</linearGradient>
<linearGradient id="paint3_linear_18_377" x1="722.25" y1="96" x2="722.25" y2="636.886" gradientUnits="userSpaceOnUse">
<stop stop-color="#FFC700"/>
<stop offset="0.515625" stop-color="#FF7A00"/>
<stop offset="0.989583" stop-color="#5200FF"/>
</linearGradient>
<linearGradient id="paint4_linear_18_377" x1="722.25" y1="128" x2="722.25" y2="668.886" gradientUnits="userSpaceOnUse">
<stop stop-color="#FFC700"/>
<stop offset="0.515625" stop-color="#FF7A00"/>
<stop offset="0.989583" stop-color="#5200FF"/>
</linearGradient>
</defs>
</svg>
