<svg width="32" height="32" viewBox="0 0 32 32" fill="none" xmlns="http://www.w3.org/2000/svg">
<path d="M20.2 11.2C19.1781 11.1965 18.1655 11.3945 17.2202 11.7828C16.2749 12.171 15.4154 12.7418 14.6909 13.4626C13.9664 14.1834 13.3912 15.0399 12.9981 15.9832C12.605 16.9265 12.4018 17.9381 12.4 18.96V26.8C12.4 27.1183 12.5264 27.4235 12.7515 27.6485C12.9765 27.8736 13.2817 28 13.6 28H16.4C16.7183 28 17.0235 27.8736 17.2485 27.6485C17.4736 27.4235 17.6 27.1183 17.6 26.8V18.96C17.5997 18.5965 17.6761 18.2371 17.824 17.9051C17.972 17.5731 18.1883 17.2761 18.4588 17.0333C18.7292 16.7905 19.0478 16.6074 19.3938 16.496C19.7398 16.3846 20.1053 16.3473 20.4667 16.3867C21.1147 16.4683 21.7102 16.7849 22.1403 17.2764C22.5704 17.7679 22.8051 18.4002 22.8 19.0533V26.8C22.8 27.1183 22.9264 27.4235 23.1515 27.6485C23.3765 27.8736 23.6817 28 24 28H26.8C27.1183 28 27.4235 27.8736 27.6485 27.6485C27.8736 27.4235 28 27.1183 28 26.8V18.96C27.9983 17.9381 27.795 16.9265 27.4019 15.9832C27.0088 15.0399 26.4336 14.1834 25.7091 13.4626C24.9846 12.7418 24.1252 12.171 23.1798 11.7828C22.2345 11.3945 21.2219 11.1965 20.2 11.2Z" fill="#231F20"/>
<path d="M8.8 12.4H5.2C4.53726 12.4 4 12.9373 4 13.6V26.8C4 27.4627 4.53726 28 5.2 28H8.8C9.46274 28 10 27.4627 10 26.8V13.6C10 12.9373 9.46274 12.4 8.8 12.4Z" fill="#231F20"/>
<path d="M7 10C8.65685 10 10 8.65685 10 7C10 5.34315 8.65685 4 7 4C5.34315 4 4 5.34315 4 7C4 8.65685 5.34315 10 7 10Z" fill="#231F20"/>
</svg>
