<svg width="32" height="32" viewBox="0 0 32 32" fill="none" xmlns="http://www.w3.org/2000/svg">
<path d="M19.68 14.92C19.4943 14.9193 19.3106 14.9573 19.1405 15.0317C18.9703 15.106 18.8176 15.2151 18.6921 15.352C18.5666 15.4888 18.471 15.6503 18.4115 15.8262C18.3521 16.0021 18.33 16.1884 18.3467 16.3733H21.0933C21.1111 16.1815 21.087 15.9881 21.0229 15.8064C20.9587 15.6247 20.8559 15.4591 20.7216 15.321C20.5872 15.1829 20.4246 15.0755 20.2448 15.0063C20.065 14.9371 19.8723 14.9076 19.68 14.92Z" fill="#231F20"/>
<path d="M12.6533 16.4H11.0133V18.9867H12.3467C13.68 18.9867 14.2667 18.5467 14.2667 17.6533C14.2667 16.76 13.6533 16.4 12.6533 16.4Z" fill="#231F20"/>
<path d="M13.8133 14.0267C13.8133 13.32 13.3467 12.8933 12.5467 12.8933H11.0133V15.2133H12.1467C13.3333 15.2133 13.8133 14.7867 13.8133 14.0267Z" fill="#231F20"/>
<path d="M16 2.66667C13.3629 2.66667 10.7851 3.44866 8.59241 4.91374C6.39975 6.37883 4.69079 8.46121 3.68162 10.8976C2.67245 13.3339 2.4084 16.0148 2.92287 18.6012C3.43734 21.1876 4.70722 23.5634 6.57192 25.4281C8.43662 27.2928 10.8124 28.5627 13.3988 29.0771C15.9852 29.5916 18.6661 29.3276 21.1025 28.3184C23.5388 27.3092 25.6212 25.6003 27.0863 23.4076C28.5514 21.215 29.3333 18.6371 29.3333 16C29.3333 14.249 28.9885 12.5152 28.3184 10.8976C27.6483 9.27988 26.6662 7.81003 25.4281 6.57191C24.19 5.3338 22.7201 4.35167 21.1025 3.68161C19.4848 3.01155 17.751 2.66667 16 2.66667ZM12.9333 20.2667H9.33334V11.6H12.9333C14.4933 11.6 15.52 12.4133 15.52 13.7333C15.5384 14.1768 15.3982 14.6123 15.1245 14.9617C14.8509 15.3111 14.4616 15.5516 14.0267 15.64C14.3023 15.6464 14.5738 15.709 14.8244 15.8239C15.075 15.9388 15.2996 16.1036 15.4843 16.3083C15.669 16.513 15.81 16.7533 15.8987 17.0143C15.9874 17.2754 16.0219 17.5518 16 17.8267C16 19.3733 14.6667 20.2667 12.9333 20.2667ZM17.6667 12.2667H21.6667V12.9333H17.6667V12.2667ZM22.6667 17.4H18.2667V17.5867C18.2437 17.7893 18.2645 17.9944 18.3276 18.1884C18.3906 18.3823 18.4945 18.5604 18.6323 18.7108C18.77 18.8611 18.9383 18.9802 19.126 19.06C19.3136 19.1398 19.5162 19.1784 19.72 19.1733C20.0062 19.2178 20.2988 19.1573 20.5439 19.0029C20.7889 18.8485 20.9699 18.6107 21.0533 18.3333H22.6667C22.523 18.9734 22.1485 19.538 21.6147 19.9193C21.0809 20.3005 20.4254 20.4717 19.7733 20.4C19.3566 20.4421 18.9357 20.3923 18.5403 20.2543C18.1449 20.1162 17.7845 19.8931 17.4845 19.6008C17.1846 19.3085 16.9523 18.954 16.8041 18.5622C16.6559 18.1705 16.5953 17.751 16.6267 17.3333V16.7467C16.5984 16.342 16.6579 15.9359 16.8012 15.5564C16.9446 15.1768 17.1683 14.8328 17.457 14.5478C17.7458 14.2629 18.0928 14.0437 18.4742 13.9054C18.8556 13.7672 19.2624 13.713 19.6667 13.7467C20.0696 13.7208 20.4735 13.7816 20.8509 13.925C21.2284 14.0683 21.5708 14.2909 21.8551 14.5777C22.1393 14.8644 22.3589 15.2088 22.4989 15.5875C22.6389 15.9663 22.6961 16.3706 22.6667 16.7733V17.4Z" fill="#231F20"/>
</svg>
