<?xml version="1.0" encoding="utf-8"?>
<!-- Generator: Adobe Illustrator 25.0.1, SVG Export Plug-In . SVG Version: 6.00 Build 0)  -->
<svg version="1.0" id="Layer_1" xmlns="http://www.w3.org/2000/svg" xmlns:xlink="http://www.w3.org/1999/xlink" x="0px" y="0px"
	 viewBox="0 0 950 608.2" style="enable-background:new 0 0 950 608.2;" xml:space="preserve">
<style type="text/css">
	.st0{fill:#123A50;}
</style>
<path class="st0" d="M201.4,194.9c6-2.2,12.7,0.6,15.4,6.5c25.2,53.5,50.2,106.9,75.2,160.5c3.1,6.6-0.8,15.3-7.9,17.1
	c-38.3,11.4-76.7,22.8-115.1,34.2c-4.6,1.7-9.8,0.5-13.4-2.9c-2.1-2.6-4-5.4-5.7-8.3c-11.9-18.5-23.8-37.1-35.7-55.7
	c-2.8-4.1-3-9.5-0.3-13.7c26.9-43.9,53.9-87.8,80.9-131.7C196.4,198.5,198.4,195.9,201.4,194.9 M206.7,224.1
	c-11.7,56.1-23.3,112.2-34.9,168.4c-1.4,3.5,2.8,6.6,6,4.9c32.3-9.6,64.7-19.1,97-28.9c2.5-0.5,4-3,3.5-5.4
	c-0.1-0.5-0.3-0.9-0.5-1.3c-21.5-46.7-43.7-93.1-65.2-139.8C210.5,221,207,221.2,206.7,224.1L206.7,224.1z"/>
<path class="st0" d="M504.3,364.7h22.7v-83.4h-22.7V364.7z M503.3,259.8c0-7.4,4.1-11.1,12.4-11.1c8.3,0,12.4,3.7,12.4,11.1
	c0,3.5-1,6.3-3.1,8.2s-5.2,2.9-9.3,3C507.5,270.9,503.4,267.2,503.3,259.8L503.3,259.8z M815.3,326l-8.8,0.3
	c-6.6,0.2-11.5,1.4-14.8,3.6c-3.2,2.2-4.8,5.5-4.8,10c0,6.4,3.7,9.6,11,9.6c5.3,0,9.5-1.5,12.6-4.5c3.2-3,4.7-7.1,4.7-12.1
	L815.3,326z M822,364.7l-4.4-11.3H817c-3.8,4.8-7.8,8.2-11.8,10s-9.3,2.8-15.8,2.8c-8,0-14.3-2.3-18.9-6.9
	c-4.6-4.6-6.9-11.1-6.9-19.5c0-8.8,3.1-15.4,9.3-19.6s15.5-6.5,28-7l14.5-0.5v-3.6c0-8.4-4.3-12.7-13-12.7c-6.7,0-14.5,2-23.5,6
	l-7.5-15.4c9.9-5.1,20.8-7.7,31.9-7.5c11.2,0,19.8,2.4,25.7,7.3c6,4.9,9,12.3,9,22.2v55.6H822z M697.2,364.7h-22.7V316
	c0-6-1-10.5-3-13.5s-5.2-4.5-9.5-4.5c-5.8,0-10,2.1-12.7,6.4c-2.6,4.3-4,11.3-4,21.1v39.2h-22.8v-83.4H640l3,10.7h1.3
	c2.3-3.9,5.7-7,9.7-9c4.5-2.2,9.5-3.3,14.5-3.2c12.5,0,20.9,4.1,25.3,12.2h2c2.3-3.9,5.8-7.1,9.9-9c4.6-2.2,9.6-3.3,14.7-3.2
	c9.4,0,16.6,2.4,21.4,7.3s7.3,12.6,7.3,23.3v54.3h-22.8V316c0-6-1-10.5-3-13.5c-2-3-5.2-4.5-9.5-4.5c-5.6,0-9.7,2-12.5,6
	c-2.8,4-4.1,10.3-4.1,18.9L697.2,364.7z M598.2,359.5c5.9-4.5,8.9-11,8.9-19.5c0.1-3.7-0.6-7.3-2.1-10.7c-1.6-3.1-3.9-5.8-6.7-7.9
	c-3-2.3-7.8-4.7-14.3-7.4c-7.3-2.9-12.1-5.1-14.2-6.6c-2.2-1.5-3.2-3.3-3.2-5.3c0-3.6,3.4-5.4,10.1-5.4c3.8,0,7.5,0.6,11.1,1.7
	c3.6,1.1,7.5,2.6,11.7,4.4l6.9-16.4c-9.2-4.3-19.2-6.5-29.3-6.6c-10.5,0-18.7,2-24.4,6.1s-8.6,9.8-8.6,17.2
	c-0.1,3.8,0.6,7.5,2.1,10.9c1.5,3.1,3.8,5.8,6.6,7.9c3,2.3,7.7,4.8,14.1,7.5c4.5,1.9,8,3.6,10.7,5c2.1,1,4,2.3,5.7,3.8
	c1.1,1.2,1.7,2.7,1.6,4.4c0,4.8-4.1,7.2-12.4,7.2c-4.7-0.1-9.4-0.8-14-2c-4.9-1.2-9.7-2.9-14.3-5v18.8c3.9,1.6,7.9,2.8,12,3.6
	c5.1,0.9,10.3,1.3,15.5,1.2C583.4,366.2,592.3,363.9,598.2,359.5L598.2,359.5z M492.2,280.5c-2.5-0.5-5.1-0.7-7.7-0.7
	c-5.1,0-10,1.5-14.2,4.3c-4.4,2.8-8,6.7-10.5,11.3h-1.1l-3.4-14h-17.2v83.3h22.7v-42.4c0-6.7,2-11.9,6.1-15.7
	c4.1-3.7,9.7-5.6,17-5.6c2.3,0,4.5,0.2,6.7,0.7L492.2,280.5z M371.1,307h7.6c7.1,0,12.4-1.4,16-4.2c3.5-2.8,5.3-6.9,5.3-12.3
	c0-5.4-1.5-9.4-4.4-12s-7.6-3.9-13.9-3.9h-10.5V307z M423.3,289.7c0,11.7-3.7,20.7-11,26.9c-7.3,6.2-17.8,9.3-31.3,9.3h-9.9v38.8
	H348v-109h34.8c13.2,0,23.3,2.8,30.2,8.5C419.9,269.9,423.3,278.4,423.3,289.7L423.3,289.7z"/>
</svg>
