<svg width="16" height="17" viewBox="0 0 16 17" fill="none" xmlns="http://www.w3.org/2000/svg">
<path d="M8.00002 4.78182C9.22584 4.77774 10.4279 5.11968 11.4681 5.7683C12.5083 6.41693 13.3443 7.34593 13.88 8.44849C12.78 10.6952 10.5334 12.1152 8.00002 12.1152C5.46669 12.1152 3.22002 10.6952 2.12002 8.44849C2.65577 7.34593 3.49178 6.41693 4.53194 5.7683C5.5721 5.11968 6.7742 4.77774 8.00002 4.78182ZM8.00002 3.44849C4.66669 3.44849 1.82002 5.52182 0.666687 8.44849C1.82002 11.3752 4.66669 13.4485 8.00002 13.4485C11.3334 13.4485 14.18 11.3752 15.3334 8.44849C14.18 5.52182 11.3334 3.44849 8.00002 3.44849ZM8.00002 6.78182C8.44205 6.78182 8.86597 6.95741 9.17853 7.26998C9.49109 7.58254 9.66669 8.00646 9.66669 8.44849C9.66669 8.89051 9.49109 9.31444 9.17853 9.627C8.86597 9.93956 8.44205 10.1152 8.00002 10.1152C7.55799 10.1152 7.13407 9.93956 6.82151 9.627C6.50895 9.31444 6.33335 8.89051 6.33335 8.44849C6.33335 8.00646 6.50895 7.58254 6.82151 7.26998C7.13407 6.95741 7.55799 6.78182 8.00002 6.78182ZM8.00002 5.44849C6.34669 5.44849 5.00002 6.79515 5.00002 8.44849C5.00002 10.1018 6.34669 11.4485 8.00002 11.4485C9.65335 11.4485 11 10.1018 11 8.44849C11 6.79515 9.65335 5.44849 8.00002 5.44849Z" fill="white"/>
</svg>
