<svg width="32" height="32" viewBox="0 0 32 32" fill="none" xmlns="http://www.w3.org/2000/svg">
<path d="M10.7733 26.6667C12.7449 26.7326 14.7097 26.4027 16.5516 25.6964C18.3936 24.9901 20.0752 23.9217 21.4972 22.5544C22.9192 21.1871 24.0526 19.5487 24.8306 17.7358C25.6086 15.923 26.0153 13.9727 26.0267 12C26.9302 10.8819 27.6011 9.59444 28 8.21334C28.0298 8.10422 28.0274 7.98882 27.9931 7.88103C27.9588 7.77325 27.8941 7.67768 27.8067 7.60582C27.7194 7.53397 27.6131 7.4889 27.5007 7.47604C27.3884 7.46318 27.2747 7.48308 27.1733 7.53334C26.7006 7.76087 26.1685 7.83437 25.6518 7.74348C25.1351 7.65258 24.66 7.40187 24.2933 7.02667C23.8253 6.51411 23.2591 6.10071 22.6283 5.81097C21.9976 5.52124 21.3151 5.36105 20.6213 5.33991C19.9275 5.31878 19.2365 5.43712 18.5893 5.68792C17.942 5.93872 17.3517 6.31688 16.8533 6.8C16.1709 7.46088 15.6711 8.28706 15.4024 9.19824C15.1337 10.1094 15.1053 11.0746 15.32 12C10.8533 12.2667 7.78666 10.1467 5.33333 7.24C5.25962 7.15654 5.16321 7.09634 5.05586 7.06676C4.94852 7.03718 4.83488 7.0395 4.72883 7.07344C4.62278 7.10738 4.5289 7.17146 4.45867 7.25786C4.38844 7.34427 4.34488 7.44926 4.33333 7.56C3.86595 10.1526 4.2031 12.8261 5.29948 15.2214C6.39587 17.6168 8.19899 19.6193 10.4667 20.96C8.94618 22.7038 6.81094 23.7929 4.50666 24C4.38321 24.0205 4.26925 24.079 4.18073 24.1675C4.09221 24.2559 4.03356 24.3698 4.01299 24.4933C3.99241 24.6167 4.01095 24.7435 4.066 24.8559C4.12105 24.9682 4.20986 25.0606 4.31999 25.12C6.32469 26.1218 8.5323 26.6509 10.7733 26.6667Z" fill="#231F20"/>
</svg>
