<svg width="16" height="17" viewBox="0 0 16 17" fill="none" xmlns="http://www.w3.org/2000/svg">
<path d="M13 13.4485H3V3.44849H8V2.44849H3C2.73486 2.44875 2.48066 2.55419 2.29319 2.74167C2.10571 2.92915 2.00026 3.18335 2 3.44849V13.4485C2.00026 13.7136 2.10571 13.9678 2.29319 14.1553C2.48066 14.3428 2.73486 14.4482 3 14.4485H13C13.2651 14.4482 13.5193 14.3428 13.7068 14.1553C13.8943 13.9678 13.9997 13.7136 14 13.4485V8.44849H13V13.4485Z" fill="white"/>
<path d="M13 13.4485H3V3.44849H8V2.44849H3C2.73486 2.44875 2.48066 2.55419 2.29319 2.74167C2.10571 2.92915 2.00026 3.18335 2 3.44849V13.4485C2.00026 13.7136 2.10571 13.9678 2.29319 14.1553C2.48066 14.3428 2.73486 14.4482 3 14.4485H13C13.2651 14.4482 13.5193 14.3428 13.7068 14.1553C13.8943 13.9678 13.9997 13.7136 14 13.4485V8.44849H13V13.4485Z" fill="white"/>
<path d="M13 3.44849V1.44849H12V3.44849H10V4.44849H12V6.44849H13V4.44849H15V3.44849H13Z" fill="white"/>
</svg>
