<svg width="32" height="32" viewBox="0 0 32 32" fill="none" xmlns="http://www.w3.org/2000/svg">
<path d="M16 1.33333C12.1513 1.29422 8.4445 2.78481 5.69431 5.4775C2.94412 8.17019 1.37555 11.8446 1.33334 15.6933C1.34817 18.7349 2.32659 21.6935 4.12809 24.1442C5.92958 26.5949 8.46144 28.4116 11.36 29.3333C12.0933 29.4667 12.36 29.0267 12.36 28.64C12.36 28.2533 12.36 27.4 12.36 26.2C8.28 27.0667 7.41334 24.28 7.41334 24.28C7.14173 23.4052 6.56431 22.6574 5.78667 22.1733C4.45334 21.2933 5.89334 21.3067 5.89334 21.3067C6.3542 21.3683 6.79514 21.5334 7.18308 21.7898C7.57102 22.0461 7.89589 22.3869 8.13334 22.7867C8.54711 23.5042 9.22605 24.0305 10.024 24.2525C10.822 24.4744 11.6752 24.3742 12.4 23.9733C12.4745 23.2432 12.8052 22.563 13.3333 22.0533C10.08 21.6933 6.66667 20.4667 6.66667 14.96C6.63758 13.5236 7.16833 12.1321 8.14667 11.08C7.70111 9.84676 7.75372 8.48842 8.29333 7.29333C8.29333 7.29333 9.53334 6.90667 12.2933 8.76C14.6959 8.11978 17.2241 8.11978 19.6267 8.76C22.4267 6.90667 23.6267 7.29333 23.6267 7.29333C24.1663 8.48842 24.2189 9.84676 23.7733 11.08C24.7744 12.1129 25.3339 13.4949 25.3333 14.9333C25.3333 20.4533 21.8933 21.6667 18.6667 22.0267C19.02 22.3697 19.2929 22.7867 19.4658 23.2478C19.6387 23.7089 19.7073 24.2026 19.6667 24.6933V28.6267C19.6667 28.6267 19.9333 29.4667 20.6667 29.32C23.557 28.3925 26.0803 26.5754 27.8763 24.1282C29.6722 21.681 30.6488 18.7288 30.6667 15.6933C30.6245 11.8446 29.0559 8.17019 26.3057 5.4775C23.5555 2.78481 19.8487 1.29422 16 1.33333Z" fill="#231F20"/>
</svg>
