<svg width="106" height="30" viewBox="0 0 106 30" fill="none" xmlns="http://www.w3.org/2000/svg">
<path d="M48.3929 9.84074C46.7802 9.84074 45.7586 10.6138 44.9812 11.5863H44.9426C44.5121 10.4953 43.6319 9.84074 42.1606 9.84074C40.5864 9.84074 39.6034 10.6325 39.0508 11.4305H39.0123V10.2896C39.0123 10.1961 38.9352 10.1213 38.8388 10.1213H37.0397C36.9434 10.1213 36.8663 10.1961 36.8663 10.2896V20.0898C36.8663 20.1833 36.9434 20.2582 37.0397 20.2582H38.8388C38.9352 20.2582 39.0123 20.1833 39.0123 20.0898V14.0863C39.0123 12.5776 39.931 11.605 41.3638 11.605C42.8545 11.605 43.1436 12.4778 43.1436 13.8494V20.0898C43.1436 20.1833 43.2207 20.2582 43.3171 20.2582H45.1354C45.2318 20.2582 45.3089 20.1833 45.3089 20.0898V14.0863C45.3089 12.5776 46.2084 11.605 47.6604 11.605C49.1318 11.605 49.4209 12.4778 49.4209 13.8494V20.0898C49.4209 20.1833 49.498 20.2582 49.5944 20.2582H51.4127C51.5091 20.2582 51.5862 20.1833 51.5862 20.0898V13.2509C51.5798 11.0689 50.5003 9.84074 48.3929 9.84074Z" fill="#201A19"/>
<path d="M62.3289 10.115H60.4142C60.3371 10.115 60.2728 10.1587 60.2471 10.2273L57.6064 17.8704H57.5679L54.683 10.2273C54.6573 10.1587 54.5931 10.115 54.5224 10.115H52.5884C52.4664 10.115 52.3828 10.2335 52.4278 10.3457L56.1222 19.2233C56.5077 20.1771 56.225 20.9688 55.8331 21.4239C55.3641 21.9788 54.6959 22.0411 53.8028 21.9227C53.7964 21.9227 53.7899 21.9227 53.7835 21.9227C53.6871 21.9227 53.61 21.9975 53.61 22.091V23.3753C53.61 23.4563 53.6678 23.5187 53.7449 23.5374C54.1305 23.6246 54.5995 23.7057 55.1456 23.7057C57.1503 23.7057 57.8249 22.4588 58.416 20.8878L62.4959 10.3457C62.5345 10.2335 62.451 10.115 62.3289 10.115Z" fill="#201A19"/>
<path d="M73.56 6.574C73.56 6.29969 73.3287 6.07526 73.046 6.07526H60.8769C60.8769 7.17872 61.7957 8.07022 62.9329 8.07022H66.2932C66.3896 8.07022 66.4667 8.14503 66.4667 8.23854V20.0836C66.4667 20.1771 66.5438 20.2519 66.6402 20.2519H68.7283C68.8247 20.2519 68.9018 20.1771 68.9018 20.0836V8.23854C68.9018 8.14503 68.9789 8.07022 69.0753 8.07022H73.046C73.3287 8.07022 73.56 7.84578 73.56 7.57148V6.574Z" fill="#201A19"/>
<path d="M78.9314 9.84074C77.293 9.84074 76.2714 10.5951 75.7189 11.3058H75.6803V10.2834C75.6803 10.1899 75.6032 10.1151 75.5068 10.1151H73.6885C73.5922 10.1151 73.5151 10.1899 73.5151 10.2834V23.5374C73.5151 23.6309 73.5922 23.7057 73.6885 23.7057H75.5068C75.6032 23.7057 75.6803 23.6309 75.6803 23.5374V19.0425H75.7189C76.2714 19.7968 77.293 20.5512 78.9314 20.5512C81.5914 20.5512 83.5703 18.525 83.5703 15.196C83.5768 11.8606 81.5914 9.84074 78.9314 9.84074ZM78.5266 18.843C76.7919 18.843 75.706 17.434 75.706 15.196C75.706 12.9329 76.7919 11.5489 78.5266 11.5489C80.4092 11.5489 81.4115 13.2135 81.4115 15.196C81.4051 17.1784 80.4092 18.843 78.5266 18.843Z" fill="#201A19"/>
<path d="M89.7063 9.84074C86.558 9.84074 84.5726 11.9043 84.5726 15.196C84.5726 18.3692 86.558 20.5512 89.8091 20.5512C92.3856 20.5512 93.9212 19.1921 94.5058 17.3779C94.538 17.272 94.4544 17.1597 94.3388 17.1597H92.5526C92.4819 17.1597 92.4177 17.2034 92.392 17.272C92.1607 17.8954 91.4282 18.843 89.7513 18.843C87.9137 18.843 86.8021 17.5276 86.7315 15.9067C86.725 15.8131 86.8086 15.7321 86.9049 15.7321H94.5701C94.6665 15.7321 94.7436 15.6573 94.7436 15.5638C94.6857 12.0477 93.0281 9.84074 89.7063 9.84074ZM92.4113 14.186H86.8985C86.8021 14.186 86.7186 14.105 86.725 14.0052C86.815 12.5339 88.0358 11.4866 89.7063 11.4866C91.3768 11.4866 92.5012 12.5339 92.5847 14.0052C92.5912 14.105 92.5141 14.186 92.4113 14.186Z" fill="#201A19"/>
<path d="M101.83 9.84074C100.031 9.84074 98.9456 10.6325 98.393 11.4305H98.3545V10.2896C98.3545 10.1961 98.2773 10.1213 98.181 10.1213H96.3819C96.2856 10.1213 96.2085 10.1961 96.2085 10.2896V20.0898C96.2085 20.1833 96.2856 20.2582 96.3819 20.2582H98.181C98.2773 20.2582 98.3545 20.1833 98.3545 20.0898V14.0863C98.3545 12.5776 99.4146 11.605 101.072 11.605C102.544 11.605 103.135 12.4778 103.135 13.8494V20.0898C103.135 20.1833 103.212 20.2582 103.308 20.2582H105.126C105.223 20.2582 105.3 20.1833 105.3 20.0898V13.2509C105.306 10.9317 103.771 9.84074 101.83 9.84074Z" fill="#201A19"/>
<path fill-rule="evenodd" clip-rule="evenodd" d="M23.9327 29.4H5.71815C2.56353 29.4 0 26.9162 0 23.8459V6.15404C0 3.0837 2.55711 0.599976 5.71815 0.599976H23.9327C27.0873 0.599976 29.6509 3.0837 29.6509 6.15404V23.8459C29.6509 26.91 27.0873 29.4 23.9327 29.4ZM24.5931 11.891V10.5109C24.5931 10.0737 24.2266 9.71777 23.7701 9.71777H19.2051L21.4426 5.70219C21.6419 5.33998 21.3783 4.90907 20.9604 4.90907L18.7807 4.89658C18.4786 4.89658 18.2021 5.05895 18.0606 5.315L15.611 9.71777H6.73817C6.73817 11.354 8.10766 12.6842 9.79221 12.6842H16.4275L14.6465 13.0714C13.9907 13.215 13.4313 13.6209 13.1163 14.1955L6.50027 26.1111L7.56115 26.1173C9.11068 26.1235 10.5445 25.2992 11.2839 23.969L17.5591 12.6842H23.7765C24.2266 12.6842 24.5931 12.3282 24.5931 11.891Z" fill="#FA0F00"/>
</svg>
